# Blender v2.79 (sub 0) OBJ File: 'DSU4.blend'
# www.blender.org
mtllib Wheel4.mtl
o Wheel4_Wheel2.001
v -0.000000 0.000000 0.254605
v -0.000000 0.147902 0.254605
v -0.127302 0.147902 0.220494
v -0.127302 0.000000 0.220494
v -0.220494 0.147902 0.127302
v -0.220494 0.000000 0.127302
v -0.254605 0.147902 -0.000000
v -0.254605 0.000000 -0.000000
v -0.220494 0.147902 -0.127302
v -0.220494 0.000000 -0.127302
v -0.127302 0.147902 -0.220494
v -0.127302 0.000000 -0.220494
v 0.000000 0.147902 -0.254605
v 0.000000 0.000000 -0.254605
v 0.127302 0.147902 -0.220494
v 0.127302 0.000000 -0.220494
v 0.220494 0.147902 -0.127302
v 0.220494 0.000000 -0.127302
v 0.254605 0.147902 0.000000
v 0.254605 0.000000 0.000000
v 0.220494 0.147902 0.127302
v 0.220494 0.000000 0.127302
v 0.127302 0.147902 0.220494
v 0.127302 0.000000 0.220494
v -0.048250 0.020731 0.083567
v -0.000000 0.020731 0.096495
v -0.000000 0.000000 0.096500
v -0.048250 0.000000 0.083567
v -0.083568 0.020731 0.048250
v -0.083568 0.000000 0.048250
v -0.096495 0.020731 -0.000000
v -0.096495 0.000000 -0.000000
v -0.083567 0.020731 -0.048250
v -0.083567 0.000000 -0.048250
v -0.048250 0.020731 -0.083567
v -0.048250 0.000000 -0.083568
v 0.000000 0.020731 -0.096495
v 0.000000 0.000000 -0.096495
v 0.048250 0.020731 -0.083567
v 0.048250 0.000000 -0.083567
v 0.083567 0.020731 -0.048250
v 0.083567 0.000000 -0.048250
v 0.096495 0.020731 0.000000
v 0.096495 0.000000 0.000000
v 0.083567 0.020731 0.048250
v 0.083567 0.000000 0.048250
v 0.048250 0.020731 0.083568
v 0.048250 0.000000 0.083568
v -0.000000 0.071802 0.136023
v 0.068013 0.071802 0.117799
v 0.117799 0.071802 0.068013
v 0.136022 0.071802 0.000000
v 0.117799 0.071802 -0.068013
v 0.068013 0.071802 -0.117799
v 0.000000 0.071802 -0.136022
v -0.068013 0.071802 -0.117799
v -0.117799 0.071802 -0.068013
v -0.136023 0.071802 -0.000000
v -0.117799 0.071802 0.068013
v -0.068013 0.071802 0.117799
v -0.000000 0.187505 0.215077
v -0.107539 0.187505 0.186262
v -0.000000 0.117031 0.175550
v -0.087776 0.117031 0.152031
v -0.186262 0.187505 0.107539
v -0.152031 0.117031 0.087776
v -0.215077 0.187505 -0.000000
v -0.175550 0.117031 -0.000000
v -0.186262 0.187505 -0.107539
v -0.152031 0.117031 -0.087776
v -0.107539 0.187505 -0.186262
v -0.087776 0.117031 -0.152031
v 0.000000 0.187505 -0.215077
v 0.000000 0.117031 -0.175550
v 0.107539 0.187505 -0.186262
v 0.087776 0.117031 -0.152031
v 0.186262 0.187505 -0.107539
v 0.152031 0.117031 -0.087776
v 0.215077 0.187505 0.000000
v 0.175550 0.117031 0.000000
v 0.186262 0.187505 0.107539
v 0.152031 0.117031 0.087776
v 0.107539 0.187505 0.186262
v 0.087776 0.117031 0.152031
v -0.127302 -0.147902 0.220494
v -0.000000 -0.147902 0.254605
v -0.220494 -0.147902 0.127302
v -0.254605 -0.147902 -0.000000
v -0.220494 -0.147902 -0.127302
v -0.127302 -0.147902 -0.220494
v 0.000000 -0.147902 -0.254605
v 0.127302 -0.147902 -0.220494
v 0.220494 -0.147902 -0.127302
v 0.254605 -0.147902 0.000000
v 0.220494 -0.147902 0.127302
v 0.127302 -0.147902 0.220494
v -0.048250 -0.020731 0.083567
v -0.000000 -0.020731 0.096495
v -0.083568 -0.020731 0.048250
v -0.096495 -0.020731 -0.000000
v -0.083567 -0.020731 -0.048250
v -0.048250 -0.020731 -0.083567
v 0.000000 -0.020731 -0.096495
v 0.048250 -0.020731 -0.083567
v 0.083567 -0.020731 -0.048250
v 0.096495 -0.020731 0.000000
v 0.083567 -0.020731 0.048250
v 0.048250 -0.020731 0.083568
v -0.000000 -0.071802 0.136023
v 0.068013 -0.071802 0.117799
v 0.117799 -0.071802 0.068013
v 0.136022 -0.071802 0.000000
v 0.117799 -0.071802 -0.068013
v 0.068013 -0.071802 -0.117799
v 0.000000 -0.071802 -0.136022
v -0.068013 -0.071802 -0.117799
v -0.117799 -0.071802 -0.068013
v -0.136023 -0.071802 -0.000000
v -0.117799 -0.071802 0.068013
v -0.068013 -0.071802 0.117799
v -0.107539 -0.187505 0.186262
v -0.000000 -0.187505 0.215077
v -0.087776 -0.117031 0.152031
v -0.000000 -0.117031 0.175550
v -0.186262 -0.187505 0.107539
v -0.152031 -0.117031 0.087776
v -0.215077 -0.187505 -0.000000
v -0.175550 -0.117031 -0.000000
v -0.186262 -0.187505 -0.107539
v -0.152031 -0.117031 -0.087776
v -0.107539 -0.187505 -0.186262
v -0.087776 -0.117031 -0.152031
v 0.000000 -0.187505 -0.215077
v 0.000000 -0.117031 -0.175550
v 0.107539 -0.187505 -0.186262
v 0.087776 -0.117031 -0.152031
v 0.186262 -0.187505 -0.107539
v 0.152031 -0.117031 -0.087776
v 0.215077 -0.187505 0.000000
v 0.175550 -0.117031 0.000000
v 0.186262 -0.187505 0.107539
v 0.152031 -0.117031 0.087776
v 0.107539 -0.187505 0.186262
v 0.087776 -0.117031 0.152031
vn -0.2588 0.0000 0.9659
vn -0.7071 0.0000 0.7071
vn -0.9659 0.0000 0.2588
vn -0.9659 0.0000 -0.2588
vn -0.7071 0.0000 -0.7071
vn -0.2588 0.0000 -0.9659
vn 0.2588 0.0000 -0.9659
vn 0.7071 0.0000 -0.7071
vn 0.9659 0.0000 -0.2588
vn 0.9659 0.0000 0.2588
vn 0.7071 0.0000 0.7071
vn 0.2588 0.0000 0.9659
vn 0.2588 -0.0002 -0.9659
vn 0.2589 0.0000 -0.9659
vn -0.2589 -0.0002 -0.9659
vn -0.2073 0.5988 -0.7736
vn -0.5663 0.5988 -0.5663
vn -0.7736 0.5988 -0.2073
vn -0.7736 0.5988 0.2073
vn -0.5663 0.5988 0.5663
vn -0.2073 0.5988 0.7736
vn 0.2073 0.5988 0.7736
vn 0.5663 0.5988 0.5663
vn 0.7736 0.5988 0.2073
vn 0.7736 0.5988 -0.2073
vn 0.5663 0.5988 -0.5663
vn 0.2073 0.5988 -0.7736
vn -0.1863 0.6941 0.6954
vn 0.2276 0.4763 -0.8493
vn 0.1978 0.6451 -0.7381
vn -0.5091 0.6941 0.5091
vn 0.6217 0.4763 -0.6217
vn 0.5403 0.6450 -0.5403
vn -0.6954 0.6941 0.1863
vn 0.8493 0.4763 -0.2276
vn 0.7381 0.6451 -0.1978
vn -0.6954 0.6941 -0.1863
vn 0.8493 0.4763 0.2276
vn 0.7381 0.6451 0.1978
vn -0.5091 0.6941 -0.5091
vn 0.6217 0.4763 0.6217
vn 0.5403 0.6450 0.5403
vn -0.1863 0.6941 -0.6954
vn 0.2276 0.4763 0.8493
vn 0.1978 0.6451 0.7381
vn 0.1863 0.6941 -0.6954
vn -0.2276 0.4763 0.8493
vn -0.1978 0.6451 0.7381
vn 0.5091 0.6941 -0.5091
vn -0.6217 0.4763 0.6217
vn -0.5403 0.6450 0.5403
vn 0.6954 0.6941 -0.1863
vn -0.8493 0.4763 0.2276
vn -0.7381 0.6451 0.1978
vn 0.6954 0.6941 0.1863
vn -0.8493 0.4763 -0.2276
vn -0.7381 0.6451 -0.1978
vn 0.5091 0.6941 0.5091
vn -0.6217 0.4763 -0.6217
vn -0.5403 0.6450 -0.5403
vn 0.1863 0.6941 0.6954
vn -0.2276 0.4763 -0.8493
vn -0.1978 0.6451 -0.7381
vn 0.2588 0.0002 -0.9659
vn -0.2589 0.0002 -0.9659
vn -0.2073 -0.5988 -0.7736
vn -0.5663 -0.5988 -0.5663
vn -0.7736 -0.5988 -0.2073
vn -0.7736 -0.5988 0.2073
vn -0.5663 -0.5988 0.5663
vn -0.2073 -0.5988 0.7736
vn 0.2073 -0.5988 0.7736
vn 0.5663 -0.5988 0.5663
vn 0.7736 -0.5988 0.2073
vn 0.7736 -0.5988 -0.2073
vn 0.5663 -0.5988 -0.5663
vn 0.2073 -0.5988 -0.7736
vn 0.0000 1.0000 0.0000
vn -0.1863 -0.6941 0.6954
vn 0.2276 -0.4763 -0.8493
vn 0.1978 -0.6451 -0.7381
vn -0.5091 -0.6941 0.5091
vn 0.6217 -0.4763 -0.6217
vn 0.5403 -0.6450 -0.5403
vn -0.6954 -0.6941 0.1863
vn 0.8493 -0.4763 -0.2276
vn 0.7381 -0.6451 -0.1978
vn -0.6954 -0.6941 -0.1863
vn 0.8493 -0.4763 0.2276
vn 0.7381 -0.6451 0.1978
vn -0.5091 -0.6941 -0.5091
vn 0.6217 -0.4763 0.6217
vn 0.5403 -0.6450 0.5403
vn -0.1863 -0.6941 -0.6954
vn 0.2276 -0.4763 0.8493
vn 0.1978 -0.6451 0.7381
vn 0.1863 -0.6941 -0.6954
vn -0.2276 -0.4763 0.8493
vn -0.1978 -0.6451 0.7381
vn 0.5091 -0.6941 -0.5091
vn -0.6217 -0.4763 0.6217
vn -0.5403 -0.6450 0.5403
vn 0.6954 -0.6941 -0.1863
vn -0.8493 -0.4763 0.2276
vn -0.7381 -0.6451 0.1978
vn 0.6954 -0.6941 0.1863
vn -0.8493 -0.4763 -0.2276
vn -0.7381 -0.6451 -0.1978
vn 0.5091 -0.6941 0.5091
vn -0.6217 -0.4763 -0.6217
vn -0.5403 -0.6450 -0.5403
vn 0.1863 -0.6941 0.6954
vn -0.2276 -0.4763 -0.8493
vn -0.1978 -0.6451 -0.7381
usemtl Material.003
s off
f 1//1 2//1 3//1
f 3//1 4//1 1//1
f 5//2 6//2 4//2
f 4//2 3//2 5//2
f 7//3 8//3 6//3
f 6//3 5//3 7//3
f 9//4 10//4 8//4
f 8//4 7//4 9//4
f 11//5 12//5 10//5
f 10//5 9//5 11//5
f 13//6 14//6 12//6
f 12//6 11//6 13//6
f 15//7 16//7 14//7
f 14//7 13//7 15//7
f 17//8 18//8 16//8
f 16//8 15//8 17//8
f 19//9 20//9 18//9
f 18//9 17//9 19//9
f 21//10 22//10 20//10
f 20//10 19//10 21//10
f 23//11 24//11 22//11
f 22//11 21//11 23//11
f 2//12 1//12 24//12
f 24//12 23//12 2//12
f 25//13 26//13 27//13
f 27//14 28//14 25//14
f 29//8 25//8 28//8
f 28//8 30//8 29//8
f 31//9 29//9 30//9
f 30//9 32//9 31//9
f 33//10 31//10 32//10
f 32//10 34//10 33//10
f 35//11 33//11 34//11
f 34//11 36//11 35//11
f 37//12 35//12 36//12
f 36//12 38//12 37//12
f 39//1 37//1 38//1
f 38//1 40//1 39//1
f 41//2 39//2 40//2
f 40//2 42//2 41//2
f 43//3 41//3 42//3
f 42//3 44//3 43//3
f 45//4 43//4 44//4
f 44//4 46//4 45//4
f 47//5 45//5 46//5
f 46//5 48//5 47//5
f 26//6 47//6 48//6
f 48//15 27//15 26//15
f 49//16 50//16 47//16
f 47//16 26//16 49//16
f 50//17 51//17 45//17
f 45//17 47//17 50//17
f 51//18 52//18 43//18
f 43//18 45//18 51//18
f 52//19 53//19 41//19
f 41//19 43//19 52//19
f 53//20 54//20 39//20
f 39//20 41//20 53//20
f 54//21 55//21 37//21
f 37//21 39//21 54//21
f 55//22 56//22 35//22
f 35//22 37//22 55//22
f 56//23 57//23 33//23
f 33//23 35//23 56//23
f 57//24 58//24 31//24
f 31//24 33//24 57//24
f 58//25 59//25 29//25
f 29//25 31//25 58//25
f 59//26 60//26 25//26
f 25//26 29//26 59//26
f 60//27 49//27 26//27
f 26//27 25//27 60//27
f 3//28 2//28 61//28
f 61//28 62//28 3//28
f 62//29 61//29 63//29
f 63//29 64//29 62//29
f 64//30 63//30 49//30
f 49//30 60//30 64//30
f 5//31 3//31 62//31
f 62//31 65//31 5//31
f 65//32 62//32 64//32
f 64//32 66//32 65//32
f 66//33 64//33 60//33
f 60//33 59//33 66//33
f 7//34 5//34 65//34
f 65//34 67//34 7//34
f 67//35 65//35 66//35
f 66//35 68//35 67//35
f 68//36 66//36 59//36
f 59//36 58//36 68//36
f 9//37 7//37 67//37
f 67//37 69//37 9//37
f 69//38 67//38 68//38
f 68//38 70//38 69//38
f 70//39 68//39 58//39
f 58//39 57//39 70//39
f 11//40 9//40 69//40
f 69//40 71//40 11//40
f 71//41 69//41 70//41
f 70//41 72//41 71//41
f 72//42 70//42 57//42
f 57//42 56//42 72//42
f 13//43 11//43 71//43
f 71//43 73//43 13//43
f 73//44 71//44 72//44
f 72//44 74//44 73//44
f 74//45 72//45 56//45
f 56//45 55//45 74//45
f 15//46 13//46 73//46
f 73//46 75//46 15//46
f 75//47 73//47 74//47
f 74//47 76//47 75//47
f 76//48 74//48 55//48
f 55//48 54//48 76//48
f 17//49 15//49 75//49
f 75//49 77//49 17//49
f 77//50 75//50 76//50
f 76//50 78//50 77//50
f 78//51 76//51 54//51
f 54//51 53//51 78//51
f 19//52 17//52 77//52
f 77//52 79//52 19//52
f 79//53 77//53 78//53
f 78//53 80//53 79//53
f 80//54 78//54 53//54
f 53//54 52//54 80//54
f 21//55 19//55 79//55
f 79//55 81//55 21//55
f 81//56 79//56 80//56
f 80//56 82//56 81//56
f 82//57 80//57 52//57
f 52//57 51//57 82//57
f 23//58 21//58 81//58
f 81//58 83//58 23//58
f 83//59 81//59 82//59
f 82//59 84//59 83//59
f 84//60 82//60 51//60
f 51//60 50//60 84//60
f 2//61 23//61 83//61
f 83//61 61//61 2//61
f 61//62 83//62 84//62
f 84//62 63//62 61//62
f 63//63 84//63 50//63
f 50//63 49//63 63//63
f 85//1 86//1 1//1
f 1//1 4//1 85//1
f 87//2 85//2 4//2
f 4//2 6//2 87//2
f 88//3 87//3 6//3
f 6//3 8//3 88//3
f 89//4 88//4 8//4
f 8//4 10//4 89//4
f 90//5 89//5 10//5
f 10//5 12//5 90//5
f 91//6 90//6 12//6
f 12//6 14//6 91//6
f 92//7 91//7 14//7
f 14//7 16//7 92//7
f 93//8 92//8 16//8
f 16//8 18//8 93//8
f 94//9 93//9 18//9
f 18//9 20//9 94//9
f 95//10 94//10 20//10
f 20//10 22//10 95//10
f 96//11 95//11 22//11
f 22//11 24//11 96//11
f 86//12 96//12 24//12
f 24//12 1//12 86//12
f 97//14 28//14 27//14
f 27//64 98//64 97//64
f 99//8 30//8 28//8
f 28//8 97//8 99//8
f 100//9 32//9 30//9
f 30//9 99//9 100//9
f 101//10 34//10 32//10
f 32//10 100//10 101//10
f 102//11 36//11 34//11
f 34//11 101//11 102//11
f 103//12 38//12 36//12
f 36//12 102//12 103//12
f 104//1 40//1 38//1
f 38//1 103//1 104//1
f 105//2 42//2 40//2
f 40//2 104//2 105//2
f 106//3 44//3 42//3
f 42//3 105//3 106//3
f 107//4 46//4 44//4
f 44//4 106//4 107//4
f 108//5 48//5 46//5
f 46//5 107//5 108//5
f 98//65 27//65 48//65
f 48//6 108//6 98//6
f 109//66 98//66 108//66
f 108//66 110//66 109//66
f 110//67 108//67 107//67
f 107//67 111//67 110//67
f 111//68 107//68 106//68
f 106//68 112//68 111//68
f 112//69 106//69 105//69
f 105//69 113//69 112//69
f 113//70 105//70 104//70
f 104//70 114//70 113//70
f 114//71 104//71 103//71
f 103//71 115//71 114//71
f 115//72 103//72 102//72
f 102//72 116//72 115//72
f 116//73 102//73 101//73
f 101//73 117//73 116//73
f 117//74 101//74 100//74
f 100//74 118//74 117//74
f 118//75 100//75 99//75
f 99//75 119//75 118//75
f 119//76 99//76 97//76
f 97//76 120//76 119//76
f 120//77 97//77 98//77
f 98//77 109//77 120//77
f 1//78 27//78 28//78
f 28//78 4//78 1//78
f 4//78 28//78 30//78
f 30//78 6//78 4//78
f 6//78 30//78 32//78
f 32//78 8//78 6//78
f 8//78 32//78 34//78
f 34//78 10//78 8//78
f 10//78 34//78 36//78
f 36//78 12//78 10//78
f 12//78 36//78 38//78
f 38//78 14//78 12//78
f 14//78 38//78 40//78
f 40//78 16//78 14//78
f 16//78 40//78 42//78
f 42//78 18//78 16//78
f 18//78 42//78 44//78
f 44//78 20//78 18//78
f 20//78 44//78 46//78
f 46//78 22//78 20//78
f 22//78 46//78 48//78
f 48//78 24//78 22//78
f 24//78 48//78 27//78
f 27//78 1//78 24//78
f 85//79 121//79 122//79
f 122//79 86//79 85//79
f 121//80 123//80 124//80
f 124//80 122//80 121//80
f 123//81 120//81 109//81
f 109//81 124//81 123//81
f 87//82 125//82 121//82
f 121//82 85//82 87//82
f 125//83 126//83 123//83
f 123//83 121//83 125//83
f 126//84 119//84 120//84
f 120//84 123//84 126//84
f 88//85 127//85 125//85
f 125//85 87//85 88//85
f 127//86 128//86 126//86
f 126//86 125//86 127//86
f 128//87 118//87 119//87
f 119//87 126//87 128//87
f 89//88 129//88 127//88
f 127//88 88//88 89//88
f 129//89 130//89 128//89
f 128//89 127//89 129//89
f 130//90 117//90 118//90
f 118//90 128//90 130//90
f 90//91 131//91 129//91
f 129//91 89//91 90//91
f 131//92 132//92 130//92
f 130//92 129//92 131//92
f 132//93 116//93 117//93
f 117//93 130//93 132//93
f 91//94 133//94 131//94
f 131//94 90//94 91//94
f 133//95 134//95 132//95
f 132//95 131//95 133//95
f 134//96 115//96 116//96
f 116//96 132//96 134//96
f 92//97 135//97 133//97
f 133//97 91//97 92//97
f 135//98 136//98 134//98
f 134//98 133//98 135//98
f 136//99 114//99 115//99
f 115//99 134//99 136//99
f 93//100 137//100 135//100
f 135//100 92//100 93//100
f 137//101 138//101 136//101
f 136//101 135//101 137//101
f 138//102 113//102 114//102
f 114//102 136//102 138//102
f 94//103 139//103 137//103
f 137//103 93//103 94//103
f 139//104 140//104 138//104
f 138//104 137//104 139//104
f 140//105 112//105 113//105
f 113//105 138//105 140//105
f 95//106 141//106 139//106
f 139//106 94//106 95//106
f 141//107 142//107 140//107
f 140//107 139//107 141//107
f 142//108 111//108 112//108
f 112//108 140//108 142//108
f 96//109 143//109 141//109
f 141//109 95//109 96//109
f 143//110 144//110 142//110
f 142//110 141//110 143//110
f 144//111 110//111 111//111
f 111//111 142//111 144//111
f 86//112 122//112 143//112
f 143//112 96//112 86//112
f 122//113 124//113 144//113
f 144//113 143//113 122//113
f 124//114 109//114 110//114
f 110//114 144//114 124//114
