# Blender v2.79 (sub 0) OBJ File: 'DSU.blend'
# www.blender.org
mtllib ShockBR.mtl
o ShockBR
v -0.247927 0.077561 -0.013700
v 0.247927 0.077561 -0.013700
v 0.247927 0.073398 -0.028568
v -0.247927 0.073398 -0.028568
v 0.247927 0.066414 -0.042339
v -0.247927 0.066414 -0.042339
v 0.247927 0.056878 -0.054482
v -0.247927 0.056878 -0.054482
v 0.247927 0.045156 -0.064532
v -0.247927 0.045156 -0.064531
v 0.247927 0.031698 -0.072101
v -0.247927 0.031698 -0.072101
v 0.247927 0.017023 -0.076900
v -0.247927 0.017023 -0.076900
v 0.247927 0.001693 -0.078743
v -0.247927 0.001693 -0.078743
v 0.247927 -0.013702 -0.077561
v -0.247927 -0.013702 -0.077561
v 0.247927 -0.028570 -0.073397
v -0.247927 -0.028570 -0.073397
v 0.247927 -0.042340 -0.066413
v -0.247927 -0.042340 -0.066413
v 0.247927 -0.054483 -0.056877
v -0.247927 -0.054483 -0.056877
v 0.247927 -0.064533 -0.045155
v -0.247927 -0.064533 -0.045155
v 0.247927 -0.072102 -0.031698
v -0.247927 -0.072102 -0.031698
v 0.247927 -0.076901 -0.017022
v -0.247927 -0.076901 -0.017022
v 0.247927 -0.078745 -0.001693
v -0.247927 -0.078745 -0.001693
v 0.247927 -0.077562 0.013702
v -0.247927 -0.077562 0.013702
v 0.247927 -0.073399 0.028570
v -0.247927 -0.073399 0.028570
v 0.247927 -0.066415 0.042341
v -0.247927 -0.066415 0.042341
v 0.247927 -0.056878 0.054484
v -0.247927 -0.056879 0.054484
v 0.247927 -0.045156 0.064533
v -0.247927 -0.045157 0.064533
v 0.247927 -0.031699 0.072103
v -0.247927 -0.031699 0.072103
v 0.247927 -0.017024 0.076902
v -0.247927 -0.017024 0.076902
v 0.247927 -0.001694 0.078745
v -0.247927 -0.001694 0.078745
v 0.247927 0.013701 0.077562
v -0.247927 0.013701 0.077562
v 0.247927 0.028569 0.073399
v -0.247927 0.028569 0.073399
v 0.247927 0.042339 0.066415
v -0.247927 0.042339 0.066415
v 0.247927 0.054483 0.056879
v -0.247927 0.054483 0.056879
v 0.247927 0.064532 0.045157
v -0.247927 0.064532 0.045157
v 0.247927 0.072102 0.031700
v -0.247927 0.072102 0.031700
v 0.247927 0.076900 0.017024
v -0.247927 0.076900 0.017024
v 0.247927 0.078744 0.001694
v -0.247927 0.078744 0.001694
vn -0.0000 0.9630 -0.2696
vn -0.0000 0.8919 -0.4523
vn -0.0000 0.7865 -0.6176
vn -0.0000 0.6509 -0.7592
vn -0.0000 0.4903 -0.8716
vn -0.0000 0.3108 -0.9505
vn -0.0000 0.1194 -0.9928
vn -0.0000 -0.0766 -0.9971
vn -0.0000 -0.2696 -0.9630
vn -0.0000 -0.4523 -0.8919
vn -0.0000 -0.6176 -0.7865
vn 0.0000 -0.7592 -0.6509
vn 0.0000 -0.8716 -0.4903
vn 0.0000 -0.9505 -0.3108
vn 0.0000 -0.9928 -0.1194
vn 0.0000 -0.9971 0.0766
vn 0.0000 -0.9630 0.2696
vn 0.0000 -0.8919 0.4523
vn 0.0000 -0.7865 0.6176
vn 0.0000 -0.6509 0.7592
vn 0.0000 -0.4903 0.8716
vn 0.0000 -0.3108 0.9505
vn 0.0000 -0.1194 0.9928
vn 0.0000 0.0766 0.9971
vn 0.0000 0.2696 0.9630
vn 0.0000 0.4523 0.8919
vn 0.0000 0.6176 0.7865
vn -0.0000 0.7592 0.6509
vn -0.0000 0.8716 0.4903
vn -0.0000 0.8716 0.4902
vn -0.0000 0.9505 0.3108
vn 1.0000 0.0000 0.0000
vn -0.0000 0.9928 0.1194
vn -0.0000 0.9971 -0.0766
vn -1.0000 -0.0000 0.0000
usemtl ShockFRmat
s off
f 1//1 2//1 3//1
f 3//1 4//1 1//1
f 4//2 3//2 5//2
f 5//2 6//2 4//2
f 6//3 5//3 7//3
f 7//3 8//3 6//3
f 8//4 7//4 9//4
f 9//4 10//4 8//4
f 10//5 9//5 11//5
f 11//5 12//5 10//5
f 12//6 11//6 13//6
f 13//6 14//6 12//6
f 14//7 13//7 15//7
f 15//7 16//7 14//7
f 16//8 15//8 17//8
f 17//8 18//8 16//8
f 18//9 17//9 19//9
f 19//9 20//9 18//9
f 20//10 19//10 21//10
f 21//10 22//10 20//10
f 22//11 21//11 23//11
f 23//11 24//11 22//11
f 24//12 23//12 25//12
f 25//12 26//12 24//12
f 26//13 25//13 27//13
f 27//13 28//13 26//13
f 28//14 27//14 29//14
f 29//14 30//14 28//14
f 30//15 29//15 31//15
f 31//15 32//15 30//15
f 32//16 31//16 33//16
f 33//16 34//16 32//16
f 34//17 33//17 35//17
f 35//17 36//17 34//17
f 36//18 35//18 37//18
f 37//18 38//18 36//18
f 38//19 37//19 39//19
f 39//19 40//19 38//19
f 40//20 39//20 41//20
f 41//20 42//20 40//20
f 42//21 41//21 43//21
f 43//21 44//21 42//21
f 44//22 43//22 45//22
f 45//22 46//22 44//22
f 46//23 45//23 47//23
f 47//23 48//23 46//23
f 48//24 47//24 49//24
f 49//24 50//24 48//24
f 50//25 49//25 51//25
f 51//25 52//25 50//25
f 52//26 51//26 53//26
f 53//26 54//26 52//26
f 54//27 53//27 55//27
f 55//27 56//27 54//27
f 56//28 55//28 57//28
f 57//28 58//28 56//28
f 58//29 57//29 59//29
f 59//30 60//30 58//30
f 60//31 59//31 61//31
f 61//31 62//31 60//31
f 5//32 3//32 2//32
f 2//32 63//32 61//32
f 61//32 59//32 57//32
f 57//32 55//32 53//32
f 53//32 51//32 49//32
f 49//32 47//32 45//32
f 45//32 43//32 41//32
f 41//32 39//32 37//32
f 37//32 35//32 33//32
f 33//32 31//32 29//32
f 29//32 27//32 25//32
f 25//32 23//32 21//32
f 21//32 19//32 17//32
f 17//32 15//32 13//32
f 13//32 11//32 9//32
f 9//32 7//32 5//32
f 5//32 2//32 61//32
f 61//32 57//32 53//32
f 53//32 49//32 45//32
f 45//32 41//32 37//32
f 37//32 33//32 29//32
f 29//32 25//32 21//32
f 21//32 17//32 13//32
f 13//32 9//32 5//32
f 5//32 61//32 53//32
f 53//32 45//32 37//32
f 37//32 29//32 21//32
f 21//32 13//32 5//32
f 5//32 53//32 37//32
f 37//32 21//32 5//32
f 62//33 61//33 63//33
f 63//33 64//33 62//33
f 2//34 1//34 64//34
f 64//34 63//34 2//34
f 64//35 1//35 4//35
f 4//35 6//35 8//35
f 8//35 10//35 12//35
f 12//35 14//35 16//35
f 16//35 18//35 20//35
f 20//35 22//35 24//35
f 24//35 26//35 28//35
f 28//35 30//35 32//35
f 32//35 34//35 36//35
f 36//35 38//35 40//35
f 40//35 42//35 44//35
f 44//35 46//35 48//35
f 48//35 50//35 52//35
f 52//35 54//35 56//35
f 56//35 58//35 60//35
f 60//35 62//35 64//35
f 64//35 4//35 8//35
f 8//35 12//35 16//35
f 16//35 20//35 24//35
f 24//35 28//35 32//35
f 32//35 36//35 40//35
f 40//35 44//35 48//35
f 48//35 52//35 56//35
f 56//35 60//35 64//35
f 64//35 8//35 16//35
f 16//35 24//35 32//35
f 32//35 40//35 48//35
f 48//35 56//35 64//35
f 64//35 16//35 32//35
f 32//35 48//35 64//35
