# Blender v2.79 (sub 0) OBJ File: 'HDU_Astronaut.blend'
# www.blender.org
mtllib SKY_Cube.mtl
o SKY_Cube
v -10.000000 -10.000000 -10.000000
v -10.000000 -10.000000 10.000000
v -10.000000 10.000000 10.000000
v -10.000000 10.000000 -10.000000
v 10.000000 10.000000 10.000000
v 10.000000 10.000000 -10.000000
v 10.000000 -10.000000 10.000000
v 10.000000 -10.000000 -10.000000
vt 0.502005 0.710533
vt 0.502005 0.251564
vt 0.731489 0.251564
vt 0.731489 0.710533
vt 0.732573 0.710710
vt 0.732573 0.251741
vt 0.962057 0.251741
vt 0.962057 0.710710
vt 0.041980 0.711346
vt 0.041980 0.252377
vt 0.271465 0.252377
vt 0.271465 0.711346
vt 0.271020 0.711064
vt 0.271020 0.252094
vt 0.500505 0.252094
vt 0.500505 0.711064
vt 0.046508 0.004512
vt 0.958620 0.004512
vt 0.958620 0.246864
vt 0.046508 0.246864
vt 0.049292 0.707418
vt 0.959208 0.707418
vt 0.959208 0.991716
vt 0.049292 0.991716
vn -1.0000 0.0000 0.0000
vn 0.0000 1.0000 0.0000
vn 1.0000 0.0000 0.0000
vn 0.0000 -1.0000 0.0000
vn 0.0000 0.0000 -1.0000
vn 0.0000 0.0000 1.0000
usemtl Material.002
s 1
f 1/1/1 2/2/1 3/3/1 4/4/1
f 4/5/2 3/6/2 5/7/2 6/8/2
f 6/9/3 5/10/3 7/11/3 8/12/3
f 8/13/4 7/14/4 2/15/4 1/16/4
f 4/17/5 6/18/5 8/19/5 1/20/5
f 5/21/6 3/22/6 2/23/6 7/24/6
